<?xml version="1.0" encoding="UTF-8"?>
<svg id="a" xmlns="http://www.w3.org/2000/svg" viewBox="0 0 514.13 308.48">
    <defs>
        <style>
            .b {
                fill: #dedfdd;
            }

            .c {
                fill: #fff;
                stroke: #e73a38;
                stroke-miterlimit: 10;
                stroke-width: 19px;
            }

            .d {
                fill: #e73a38;
            }
        </style>
    </defs>
    <g>
        <rect class="b" x="319.25" y="79.45" width="94.04" height="16.3" rx="8.15" ry="8.15" />
        <rect class="b" x="339.34" y="113.59" width="145.92" height="16.3" rx="8.15" ry="8.15" />
        <rect class="b" x="361.61" y="148.86" width="108.75" height="16.3" rx="8.15" ry="8.15" />
        <rect class="b" x="380.98" y="182.89" width="127.27" height="16.3" rx="8.15" ry="8.15" />
        <rect class="b" x="98.41" y="192.44" width="70.58" height="16.3" rx="8.15" ry="8.15" />
        <rect class="b" x="24.66" y="158.46" width="161.93" height="16.3" rx="8.15" ry="8.15" />
        <rect class="b" x="89.1" y="123.86" width="117.43" height="16.3" rx="8.15" ry="8.15" />
        <rect class="b" x="121.12" y="89.26" width="107.35" height="16.3" rx="8.15" ry="8.15" />
        <path class="b"
            d="M383.08,113.59c-4.9,0-8.92-4.01-8.92-8.92s4.01-8.92,8.92-8.92h11.89v-6.46h-52.89v29.35h52.89v-5.06h-11.89Z" />
        <path class="b"
            d="M408.17,148.86c-5.22,0-9.48-4.27-9.48-9.48s4.27-9.48,9.48-9.48h21.82v-4.4h-69.39v28.75h69.39v-5.38h-21.82Z" />
        <path class="b"
            d="M439.83,182.89c-4.87,0-8.86-3.99-8.86-8.86s3.99-8.86,8.86-8.86h12.07v-4.65h-69.91v30.52h69.91v-8.15h-12.07Z" />
        <path class="b"
            d="M128.1,172.06v2.71h7.21c4.86,0,8.84,3.98,8.84,8.84s-3.98,8.84-8.84,8.84h-7.21v5.05h39.2v-25.43h-39.2Z" />
        <path class="b"
            d="M109.54,137.92v2.25h9.42c5.03,0,9.15,4.12,9.15,9.15h0c0,5.03-4.12,9.15-9.15,9.15h-9.42v6.07h83.93v-26.61H109.54Z" />
        <path class="b"
            d="M140.03,100.45v5.12h11.33c5.03,0,9.15,4.12,9.15,9.15s-4.12,9.15-9.15,9.15h-11.33v3.2h75v-26.61h-75Z" />
    </g>
    <path class="c"
        d="M254.16,40.5l-116.12,201.12c-10.15,17.57,2.54,39.54,22.83,39.54h232.23c20.29,0,32.97-21.97,22.83-39.54L299.82,40.5c-10.15-17.57-35.51-17.57-45.65,0Z" />
    <polygon class="d" points="263.49 121.74 290.49 121.74 285.49 186.74 268.49 186.74 263.49 121.74" />
    <ellipse class="d" cx="276.99" cy="209.52" rx="15.7" ry="16.24" />
    <g>
        <circle class="b" cx="392.96" cy="58.04" r="7.58" />
        <circle class="b" cx="88.77" cy="230.17" r="7.58" />
        <g>
            <rect class="b" x="188.75" y="31.87" width="9.44" height="26.12" rx="4.72" ry="4.72" />
            <rect class="b" x="188.75" y="31.87" width="9.44" height="26.12" rx="4.72" ry="4.72"
                transform="translate(148.54 238.4) rotate(-90)" />
        </g>
        <g>
            <rect class="b" x="458.62" y="222.54" width="9.44" height="26.12" rx="4.72" ry="4.72"
                transform="translate(-56.4 243.21) rotate(-27.79)" />
            <rect class="b" x="458.62" y="222.54" width="9.44" height="26.12" rx="4.72" ry="4.72"
                transform="translate(470.95 755.34) rotate(-117.79)" />
        </g>
        <g>
            <rect class="b" x="60.24" y="105.53" width="9.44" height="26.12" rx="4.72" ry="4.72"
                transform="translate(47.33 -15.47) rotate(21.22)" />
            <rect class="b" x="60.24" y="105.53" width="9.44" height="26.12" rx="4.72" ry="4.72"
                transform="translate(-69.11 136.22) rotate(-68.78)" />
        </g>
    </g>
</svg>